<svg xmlns="http://www.w3.org/2000/svg" width="1073.75" height="284" viewBox="0 0 1073.75 284">
  <defs>
    <style>
      .cls-1 {
        fill: #00556a;
        fill-rule: evenodd;
      }
    </style>
  </defs>
  <path id="形状_1" data-name="形状 1" class="cls-1" d="M235.918,0a94.623,94.623,0,0,0-94.406,94.422v23.736H50.254C60.779,77.5,97.78,47.32,141.594,47.32V0.036C63.561,0.162,0,63.889,0,142S63.543,283.836,141.511,284h47.216V94.422a47.176,47.176,0,0,1,94.351-.137v23.873H204.205v47.228h78.873V284H330.27V94.285A94.593,94.593,0,0,0,235.918,0ZM141.51,236.188c-43.73-.039-80.731-30.2-91.256-70.8H141.51v70.8h0Zm481.455-173.6L609.209,26.054H573.234l16.185,43.04H532.6l37.43-67.935H531.084L497.8,61.741v19.4H606.962c12.82,0.011,20.579-6.655,16-18.542Zm342.15,63.531h20.276v35.34h34.059V126.128h20.23v23.313h-8.38v12.023h21.54s21.16-1.033,20.92-21.591V43.361h-21.61l21.61-17.815V8.371H931.076v12.1h98.594L1001.9,43.359h-6.013l-14.5-15.621H937.078l14.471,15.621H931.076V161.467h34.035V126.128Zm74.575-12.09h-20.24v-23.2h20.24v23.2Zm-20.26-58.617h20.24V78.708h-20.24V55.416Zm-54.306.321h20.263V78.729H965.124V55.737h0Zm0,35.1h20.263v23.2H965.124v-23.2ZM920.153,8.371h-43.27v12.1h43.27V8.371Zm-477.018,1.6H418.172V175.512h24.963V9.969ZM623.383,162.428V92.985H497.8V182.3h98.925C611.161,182.3,623.383,177.578,623.383,162.428Zm-34.11,7.774H531.888V105.073h57.385V170.2h0ZM484.536,0.891H450.431V182.3h34.105V65.248h8.2V43.134h-8.2V0.89h0ZM1073.76,170.2H947.539A33.514,33.514,0,0,1,932.8,166.93l-12.651-6.149V36.734H876.9V48.807h9.128V165.068l-9.128,3.844V182.3l31.251-13.265,16.859,8.229A48.01,48.01,0,0,0,946.1,182.3H1073.76V170.2h0Zm-226.967,0H804.022V142.744h39.46V49.564h-39.46V21.707h42.771V9.691H649.962V21.714h43.569V49.57H653.239v93.18h40.292v27.458H649.962V182.3H846.793V170.2h0Zm-76.928,0H727.606V130.691H687.327V61.616h40.279V21.707h42.259V61.616h39.591v69.075H769.864V170.2h0Zm133.152,51.92c-0.27-.947-0.48-1.92-0.69-2.784h-28.5c-0.48,1.008-.94,2.086-1.43,3.132-0.53,1.053-1.279,2.475-2.169,4.276l-29.44,55.309h26.381c0.53-1.686.97-3.108,1.41-4.366a27.821,27.821,0,0,1,1.069-2.882l3.1-6.748h22.482l2.619,8.486c0.31,1,.5,1.973.72,2.869,0.14,0.881.32,1.755,0.41,2.641h25.171l-19.983-56.316c-0.5-1.387-.859-2.606-1.149-3.617h0Zm-24.642,29.529,8.567-19.1,4.959,19.1H878.375Zm85.631,3.3c-0.65-.485-1.59-1.148-2.8-1.9-2.27-1.555-3.439-2.676-3.439-3.452a1.167,1.167,0,0,1,.689-1.018,4.858,4.858,0,0,1,1.82-.319,25.39,25.39,0,0,1,3.948.392c1.63,0.254,4.109.829,7.528,1.694l-0.82-15.716a72.222,72.222,0,0,0-8.847-1.539,80.492,80.492,0,0,0-8.877-.456c-6.617,0-11.716,1.321-15.344,3.943a13.1,13.1,0,0,0-5.478,11.208,12.745,12.745,0,0,0,1.6,6.5c1.06,1.829,3.1,3.816,6.158,5.982,1.06,0.692,2.3,1.584,3.889,2.6,2.419,1.531,3.608,2.661,3.608,3.378a1.115,1.115,0,0,1-.659.94,2.984,2.984,0,0,1-1.58.373,26.326,26.326,0,0,1-5.968-.937c-2.459-.628-5.308-1.566-8.577-2.725l1.28,16.492a50.871,50.871,0,0,0,17.784,2.984c6.957,0,12.365-1.384,16.294-4.171a13.487,13.487,0,0,0,5.848-11.506,12.1,12.1,0,0,0-1.839-6.556,24.682,24.682,0,0,0-6.218-6.194v0Zm104.714-19.543c-3.3-1.984-8.46-2.956-15.41-2.956a70.014,70.014,0,0,0-10.84.811,71.493,71.493,0,0,0-11,2.282l-1.98,14.269a86.254,86.254,0,0,1,10.94-3.36,34.009,34.009,0,0,1,7.92-1.235,4.074,4.074,0,0,1,2.48.663,2.175,2.175,0,0,1,.86,1.8c0,1.464-2.23,2.641-6.64,3.512-3.05.576-5.52,1.194-7.6,1.667-5.13,1.366-8.87,3.36-11.33,5.965a13.875,13.875,0,0,0-3.7,10.032c0,4.555,1.44,8.04,4.23,10.583,2.86,2.521,6.84,3.784,11.97,3.784a23.019,23.019,0,0,0,3.46-.217,33.415,33.415,0,0,0,4.12-.6l3.18-11.029a14.8,14.8,0,0,1-1.68.2c-0.43.039-.78,0.067-1.11,0.067a4.122,4.122,0,0,1-2.82-.874,3.093,3.093,0,0,1-1.01-2.457c0-1.5.91-2.67,2.76-3.726a18.828,18.828,0,0,1,7.43-1.876c-0.08,2.932-.29,5.927-0.47,9.129-0.24,3.188-.46,6.577-0.79,10.212h20.51c0-2.051.04-4.245,0.12-6.683v-1.257l1.12-24.258c0.09-1.018.15-1.984,0.15-2.865,0.02-.878.04-1.633,0.04-2.17,0-4.24-1.67-7.383-4.91-9.416v0Zm-80.473-2.858h22.423l0.67-13.209H988.927Zm-1.459,27.616c-0.38,7.576-.91,14.887-1.62,21.892h23.612c0-8.3.16-16.2,0.53-23.7q0.405-11.282,1.46-21.86H987.378c0,8.272-.18,16.136-0.59,23.665v0ZM636.27,233.049a16.928,16.928,0,0,0-2.074-.148,10.4,10.4,0,0,0-5,1.24,16.683,16.683,0,0,0-4.758,3.8l-0.348-4.189-22.252.1c0,9.263-.178,17.8-0.572,25.758-0.336,7.913-.925,15.423-1.655,22.447H623.3c0-.741-0.032-1.539-0.049-2.423v-3.68c0-9.087.8-15.305,2.329-18.746a8.1,8.1,0,0,1,8.009-5.148,45.908,45.908,0,0,1,5.312.513l0.5,0.063-1.12-19.05A17.373,17.373,0,0,0,636.27,233.049ZM420.813,253.874c-0.537,10.6-1.257,20-2.084,28.181H473.4l0.665-16.738c-2.554.22-5.192,0.392-7.907,0.491-2.656.1-5.687,0.13-9.121,0.13H443.756l0.474-7.566h12.8c2.845,0,5.209,0,7.1.063,1.873,0.063,3.728.137,5.54,0.256l0.7-16.39h-0.571c-7.292.291-11.684,0.452-13.151,0.452h-11.66l0.463-7.562H460.8c2.285,0,4.677.052,7.167,0.173,2.468,0.115,5.089.287,7.839,0.553l0.735-16.579H421.953C421.759,231.711,421.431,243.256,420.813,253.874Zm93.212-4.017h8.9l0.863-16.007h-9.3l0.775-13.437L494.7,224.654l-0.455,9.2h-7.74l-0.856,16.007h5.684l-1.017,16.654v2.3q0,7.347,4.532,10.978c2.919,2.4,7.477,3.6,13.509,3.6a43.593,43.593,0,0,0,5.976-.417,45.617,45.617,0,0,0,5.931-1.376l2.93-17.153c-1.262.3-2.392,0.474-3.392,0.629-0.975.115-1.8,0.218-2.467,0.253a3.336,3.336,0,0,1-2.89-1.208,7.045,7.045,0,0,1-.856-3.946V259.12Zm274.521-7.012c-0.43,8.779-1.289,21.825-2.459,39.21h24.032v-1.8c0-7.275.29-16,.85-26.1,0.519-10.1,1.359-21.712,2.409-34.823H789.446C789.266,226.248,789.016,234.07,788.546,242.845ZM582.1,237.5q-5.824-4.941-17.649-4.955c-9.481,0-16.714,2.342-21.792,7.085-5.112,4.744-7.631,11.5-7.631,20.351,0,7.756,2.315,13.546,7.013,17.534,4.7,3.881,11.6,5.864,20.723,5.864a72.817,72.817,0,0,0,9.17-.547,90.129,90.129,0,0,0,9.381-1.7l2.628-16.52a75.521,75.521,0,0,1-9.517,2.525,51.467,51.467,0,0,1-8.715.8A9.432,9.432,0,0,1,559.7,266.3a5.8,5.8,0,0,1-2.03-4.715V261.21H587.12c0.366-2.64.538-4.519,0.657-5.675a25.845,25.845,0,0,0,.145-2.931C587.917,245.861,586,240.862,582.1,237.5ZM569.94,252.24H556.767a9.627,9.627,0,0,1,2.364-5.755A6.511,6.511,0,0,1,564,244.374a5.382,5.382,0,0,1,4.432,1.822,8.14,8.14,0,0,1,1.508,5.351v0.693h0Zm121.735-19.7a27.509,27.509,0,0,0-9.508,1.412,21.45,21.45,0,0,0-7.331,4.908V233.85H651.955q0,13.208-.547,25.157c-0.354,7.939-.817,15.67-1.446,23.048h23.273c0.3-13.824,1-22.426,2.127-25.867,1.091-3.411,3-5.137,5.722-5.137a3.672,3.672,0,0,1,3.386,1.811,12.52,12.52,0,0,1,1.072,5.791c0,3.029-.1,6.411-0.308,10.087-0.207,3.708-.509,8.121-0.88,13.315h22.978c0.109-5.784.429-12.332,0.818-19.751,0.421-7.356.649-11.875,0.649-13.585,0-5.673-1.375-9.75-4.087-12.366-2.756-2.539-7.115-3.806-13.037-3.806v0ZM767.4,235.4c-3.3-1.984-8.457-2.956-15.425-2.956a70.952,70.952,0,0,0-10.856.811,73.264,73.264,0,0,0-10.939,2.282l-1.946,14.269a81.9,81.9,0,0,1,10.925-3.36,33.347,33.347,0,0,1,7.908-1.235,3.832,3.832,0,0,1,2.4.663,2.144,2.144,0,0,1,.9,1.8c0,1.464-2.209,2.641-6.637,3.512-3.029.576-5.538,1.194-7.608,1.667-5.073,1.366-8.887,3.36-11.307,5.965a14.1,14.1,0,0,0-3.7,10.032c0,4.555,1.438,8.04,4.223,10.583,2.892,2.521,6.849,3.784,11.978,3.784a22.874,22.874,0,0,0,3.449-.217,34.488,34.488,0,0,0,4.108-.6l3.179-11.029a14.784,14.784,0,0,1-1.639.2c-0.44.039-.81,0.067-1.16,0.067a4.183,4.183,0,0,1-2.839-.874,3.091,3.091,0,0,1-.969-2.457c0-1.5.909-2.67,2.739-3.726a19.381,19.381,0,0,1,7.457-1.876c-0.11,2.932-.25,5.927-0.47,9.129s-0.46,6.577-.809,10.212h20.552c0-2.051,0-4.245.07-6.683v-1.257l1.17-24.258c0.04-1.018.06-1.984,0.15-2.865,0.02-.878.02-1.633,0.02-2.17,0-4.235-1.625-7.378-4.924-9.411v0Z"/>
</svg>
