<?xml version="1.0" standalone="no"?><!DOCTYPE svg PUBLIC "-//W3C//DTD SVG 1.1//EN" "http://www.w3.org/Graphics/SVG/1.1/DTD/svg11.dtd"><svg t="1731179793943" class="icon" viewBox="0 0 1024 1024" version="1.1" xmlns="http://www.w3.org/2000/svg" p-id="8146" data-spm-anchor-id="a313x.search_index.0.i3.54e83a815uEBCl" xmlns:xlink="http://www.w3.org/1999/xlink" width="200" height="200"><path d="M901 487c-13.8 0-25 11.2-25 25 0 97.2-37.9 188.6-106.6 257.4C700.6 838.1 609.2 876 512 876s-188.6-37.9-257.4-106.6C185.9 700.6 148 609.2 148 512s37.9-188.6 106.6-257.4C323.4 185.9 414.8 148 512 148c47.6 0 93.4 8.9 136.6 26.5 3.6 20.7 21.6 36.5 43.4 36.5 24.3 0 44-19.7 44-44s-19.7-44-44-44c-8.1 0-15.8 2.2-22.3 6.1C619.8 108.4 566.9 98 512 98c-55.9 0-110.1 10.9-161.2 32.5-49.3 20.9-93.6 50.7-131.6 88.7s-67.9 82.3-88.7 131.6C108.9 401.9 98 456.1 98 512s10.9 110.1 32.5 161.2c20.9 49.3 50.7 93.6 88.7 131.6s82.3 67.9 131.6 88.7C401.9 915.1 456.1 926 512 926s110.1-10.9 161.2-32.5c49.3-20.9 93.6-50.7 131.6-88.7s67.9-82.3 88.7-131.6C915.1 622.1 926 567.9 926 512c0-13.8-11.2-25-25-25z" fill="#2c2c2c" p-id="8147"></path><path d="M523.8 280.2c-7.4-3.9-16.2-3.9-23.6 0L306 384.1c-1 0.4-2 0.9-2.9 1.5-7.5 4.5-12.1 12.7-12.1 21.4v209.8c0 6.6 2.7 13.1 7.4 17.7 1.7 1.7 3.7 3.2 5.9 4.4l196 104.8c3.7 2 7.7 3 11.8 3s8.1-1 11.8-3l196-104.8c2.2-1.2 4.2-2.7 6-4.4 4.7-4.7 7.3-11 7.3-17.7V407.1c0-10.3-6.2-19.1-15.1-22.9l-194.3-104zM512 330.6l143 76.5-142.5 76.2L369.1 407 512 330.6zM340.9 601.9V448.8l144.9 77.5v153.1l-144.9-77.5z m195 78.7V527.5l147.2-78.7v153.1l-147.2 78.7z" fill="#2c2c2c" p-id="8148"></path></svg>