<?xml version="1.0" standalone="no"?><!DOCTYPE svg PUBLIC "-//W3C//DTD SVG 1.1//EN" "http://www.w3.org/Graphics/SVG/1.1/DTD/svg11.dtd"><svg t="1731179700759" class="icon" viewBox="0 0 1033 1024" version="1.1" xmlns="http://www.w3.org/2000/svg" p-id="6275" xmlns:xlink="http://www.w3.org/1999/xlink" width="201.7578125" height="200"><path d="M509.538966 1024c-280.741617 0-509.475345-229.74359-509.475345-512 0-282.25641 228.733728-512 509.475345-512 90.887574 0 179.755424 24.236686 257.514793 70.185404 12.118343 7.069034 16.157791 22.721893 9.088758 34.335306-7.069034 12.118343-22.721893 16.157791-34.335306 9.088757-70.185404-41.404339-150.469428-63.116371-231.763314-63.11637-252.970414 0-458.982249 207.021696-458.982248 461.506903s206.011834 461.506903 458.982248 461.506903 458.982249-207.021696 458.982249-461.506903c0-67.155819-14.138067-131.786982-41.404339-192.378698-5.554241-12.623274 0-27.771203 12.623274-33.325444 12.623274-5.554241 27.771203 0 33.325444 12.623274 30.800789 67.155819 45.948718 138.856016 45.948718 213.080868-0.504931 282.25641-229.238659 512-509.980277 512z" fill="#012733" p-id="6276"></path><path d="M658.998533 504.426036h-299.424064c-14.138067 0-25.246548-11.108481-25.246548-25.246549s11.108481-25.246548 25.246548-25.246548h299.424064c14.138067 0 25.246548 11.108481 25.246548 25.246548s-11.108481 25.246548-25.246548 25.246549z" fill="#012733" p-id="6277"></path><path d="M509.538966 691.755424c-14.138067 0-25.246548-11.108481-25.246548-25.246548v-168.142012c0-14.138067 11.108481-25.246548 25.246548-25.246548s25.246548 11.108481 25.246549 25.246548v168.142012c0 13.633136-11.108481 25.246548-25.246549 25.246548z" fill="#012733" p-id="6278"></path><path d="M615.069538 615.005917H403.503464c-14.138067 0-25.246548-11.108481-25.246549-25.246548s11.108481-25.246548 25.246549-25.246548h211.566074c14.138067 0 25.246548 11.108481 25.246549 25.246548s-11.108481 25.246548-25.246549 25.246548zM496.410761 504.426036c-7.069034 0-14.138067-3.029586-19.187376-8.583827l-105.530572-121.688363c-9.088757-10.60355-8.078895-26.25641 2.524654-35.850098 10.60355-9.088757 26.25641-8.078895 35.850099 2.524654l105.530572 121.688363c9.088757 10.60355 8.078895 26.25641-2.524655 35.850099-5.04931 4.039448-10.60355 6.059172-16.662722 6.059172z" fill="#012733" p-id="6279"></path><path d="M522.667172 504.426036c-6.059172 0-11.613412-2.019724-16.662722-6.059172-10.60355-9.088757-11.613412-25.246548-2.524655-35.850099l105.530572-121.688363c9.088757-10.60355 25.246548-11.613412 35.850098-2.524654 10.60355 9.088757 11.613412 25.246548 2.524655 35.850098l-105.530572 121.688363c-5.04931 5.554241-12.118343 8.583826-19.187376 8.583827z" fill="#012733" p-id="6280"></path></svg>